<svg width="16" height="12" viewBox="0 0 16 12" fill="none" xmlns="http://www.w3.org/2000/svg">
<path fill-rule="evenodd" clip-rule="evenodd" d="M14.8519 2.21883C15.2424 1.8283 15.2424 1.19514 14.8519 0.804612C14.4614 0.414088 13.8282 0.414088 13.4377 0.804612L5.55367 8.68862L2.24448 5.30248C1.85847 4.90749 1.22535 4.90021 0.830364 5.28622C0.435377 5.67223 0.4281 6.30535 0.81411 6.70034L4.81986 10.7992C4.82591 10.8056 4.83206 10.8119 4.83832 10.8182C5.22521 11.2051 5.85024 11.2087 6.24157 10.829C6.24252 10.8281 6.24348 10.8271 6.24443 10.8262C6.24802 10.8227 6.25158 10.8192 6.25511 10.8156L14.8519 2.21883Z" fill="white"/>
</svg>
